<svg baseProfile="tiny" xmlns="http://www.w3.org/2000/svg" width="144" height="48" viewBox="0 0 144 48" overflow="inherit"><rect width="144" height="48"/><g fill="#fff"><path d="M31.577 42.339l-.755-5.098h-10.858l-2.785 5.098h-12.179l20.534-33.421h11.518l5.854 33.421h-11.329zm-2.644-22.045l-4.768 8.591h5.759l-.991-8.591zM43.708 42.339l6.278-35.687h10.81l-6.278 35.687h-10.81zM72.172 25.109l-1.274 6.986c-.032.188-.055.409-.07.66-.017.253-.024.457-.024.614 0 .726.181 1.203.543 1.439.361.236.874.354 1.534.354.377 0 .755-.031 1.133-.096.378-.061.692-.124.944-.188l-1.274 7.271c-.409.251-1.133.455-2.171.612-1.039.16-2.047.239-3.022.239-1.039 0-2.062-.094-3.068-.283-1.007-.189-1.904-.52-2.69-.991-.787-.472-1.424-1.117-1.912-1.936s-.731-1.872-.731-3.163c0-.346.023-.738.07-1.18.047-.439.102-.85.166-1.227l1.652-9.111h-3.682l1.322-7.6h3.493l.991-5.618h10.243l-.991 5.618h4.768l-1.322 7.6h-4.628zM99.646 38.515c-.126.693-.213 1.401-.261 2.125-.046.724-.069 1.29-.069 1.699h-9.064c0-.22.007-.574.023-1.062.016-.488.039-.89.071-1.205h-.094c-.913 1.04-1.952 1.788-3.116 2.244-1.164.455-2.454.684-3.87.684-.882 0-1.763-.126-2.644-.377-.882-.253-1.676-.638-2.384-1.158-.708-.519-1.283-1.194-1.723-2.029-.441-.832-.661-1.833-.661-2.997 0-1.919.432-3.501 1.298-4.744.865-1.243 2.03-2.226 3.493-2.951 1.463-.723 3.154-1.234 5.075-1.534 1.919-.299 3.934-.448 6.042-.448l.047-.307v-.212c0-.629-.276-1.109-.826-1.44-.551-.33-1.267-.496-2.147-.496-1.008 0-1.983.197-2.927.59-.944.394-1.811.92-2.597 1.582l-4.626-5.287c.755-.724 1.612-1.361 2.573-1.912.959-.55 1.943-1.015 2.95-1.392 1.007-.378 2.03-.661 3.069-.85 1.038-.188 2.03-.283 2.974-.283 3.776 0 6.615.763 8.521 2.29 1.904 1.526 2.856 3.674 2.856 6.443 0 1.165-.127 2.471-.379 3.918l-1.604 9.109zm-8.167-6.372h-.614c-.787 0-1.527.047-2.219.141-.692.096-1.298.246-1.817.45-.52.204-.937.472-1.251.802-.315.33-.472.748-.472 1.252 0 .724.228 1.188.685 1.393.456.204.951.306 1.487.306 1.038 0 1.927-.33 2.667-.991.739-.66 1.203-1.51 1.393-2.549l.141-.804zM101.864 42.339l4.391-24.83h10.573l-4.391 24.83h-10.573zm10.291-26.671c-.818 0-1.55-.125-2.195-.377-.646-.251-1.188-.59-1.629-1.015-.44-.424-.786-.912-1.037-1.463-.254-.55-.379-1.125-.379-1.723 0-.85.143-1.644.425-2.384.284-.739.691-1.384 1.228-1.935.536-.55 1.164-.983 1.888-1.298.724-.315 1.542-.473 2.454-.473.755 0 1.456.126 2.102.377.644.252 1.194.59 1.651 1.015.455.424.811.913 1.062 1.463.252.551.378 1.125.378 1.723 0 .85-.142 1.645-.426 2.384-.282.74-.684 1.385-1.202 1.936-.521.551-1.151.984-1.889 1.298-.74.315-1.551.472-2.431.472zM120.062 20.059c.142-.945.244-1.794.307-2.549h10.147c0 .158-.015.362-.046.614-.032.252-.07.527-.119.826l-.14.874-.119.708h.142c.725-1.007 1.606-1.849 2.644-2.526 1.039-.676 2.267-1.015 3.682-1.015.852 0 1.512.079 1.982.236l-1.982 8.969c-.314-.094-.676-.157-1.085-.188-.409-.031-.787-.047-1.133-.047-1.637 0-2.912.433-3.825 1.298-.912.866-1.479 1.881-1.697 3.044l-2.125 12.037h-10.575l3.54-19.968c.124-.598.259-1.37.402-2.313z"/></g></svg>